<svg id="nmgr-svgs" aria-hidden="true" style="position: absolute; width: 0; height: 0; overflow: hidden;" version="1.1" xmlns="http://www.w3.org/2000/symbol" xmlns:xlink="http://www.w3.org/1999/xlink">
	<defs>
		<symbol id="nmgr-icon-user" viewBox="0 0 24 24">
			<path d="M13.5 16.561v-1.237c1.652-0.931 3-3.252 3-5.574 0-3.728 0-6.75-4.5-6.75s-4.5 3.022-4.5 6.75c0 2.322 1.348 4.643 3 5.574v1.237c-5.088 0.416-9 2.916-9 5.939h21c0-3.023-3.912-5.523-9-5.939z"></path>
		</symbol>
		<symbol id="nmgr-icon-pencil" viewBox="0 0 24 24">
			<path d="M7.127 22.564l-7.126 1.436 1.438-7.125 5.688 5.689zm-4.274-7.104l5.688 5.689 15.46-15.46-5.689-5.689-15.459 15.46z"/>
		</symbol>
		<symbol id="nmgr-icon-trash-can" viewBox="0 0 24 24">
			<path d="M3 6l3 18h12l3-18h-18zm19-4v2h-20v-2h5.711c.9 0 1.631-1.099 1.631-2h5.316c0 .901.73 2 1.631 2h5.711z"/>
		</symbol>
		<symbol id="nmgr-icon-star-full" viewBox="0 0 24 24">
			<path d="M12 .587l3.668 7.568 8.332 1.151-6.064 5.828 1.48 8.279-7.416-3.967-7.417 3.967 1.481-8.279-6.064-5.828 8.332-1.151z"/>
		</symbol>
		<symbol id="nmgr-icon-star-empty" viewBox="0 0 24 24">
			<path d="M12 5.173l2.335 4.817 5.305.732-3.861 3.71.942 5.27-4.721-2.524-4.721 2.525.942-5.27-3.861-3.71 5.305-.733 2.335-4.817zm0-4.586l-3.668 7.568-8.332 1.151 6.064 5.828-1.48 8.279 7.416-3.967 7.416 3.966-1.48-8.279 6.064-5.827-8.332-1.15-3.668-7.569z"/>
		</symbol>
		<symbol id="nmgr-icon-gear" viewBox="0 0 24 24">
			<path d="M24 13.616v-3.232c-1.651-.587-2.694-.752-3.219-2.019v-.001c-.527-1.271.1-2.134.847-3.707l-2.285-2.285c-1.561.742-2.433 1.375-3.707.847h-.001c-1.269-.526-1.435-1.576-2.019-3.219h-3.232c-.582 1.635-.749 2.692-2.019 3.219h-.001c-1.271.528-2.132-.098-3.707-.847l-2.285 2.285c.745 1.568 1.375 2.434.847 3.707-.527 1.271-1.584 1.438-3.219 2.02v3.232c1.632.58 2.692.749 3.219 2.019.53 1.282-.114 2.166-.847 3.707l2.285 2.286c1.562-.743 2.434-1.375 3.707-.847h.001c1.27.526 1.436 1.579 2.019 3.219h3.232c.582-1.636.75-2.69 2.027-3.222h.001c1.262-.524 2.12.101 3.698.851l2.285-2.286c-.744-1.563-1.375-2.433-.848-3.706.527-1.271 1.588-1.44 3.221-2.021zm-12 2.384c-2.209 0-4-1.791-4-4s1.791-4 4-4 4 1.791 4 4-1.791 4-4 4z"/>
		</symbol>
		<symbol id="nmgr-icon-cart-full" viewBox="0 0 24 24">
			<path d="M10 19.5c0 .829-.672 1.5-1.5 1.5s-1.5-.671-1.5-1.5c0-.828.672-1.5 1.5-1.5s1.5.672 1.5 1.5zm3.5-1.5c-.828 0-1.5.671-1.5 1.5s.672 1.5 1.5 1.5 1.5-.671 1.5-1.5c0-.828-.672-1.5-1.5-1.5zm6.304-15l-3.431 12h-2.102l2.542-9h-16.813l4.615 11h13.239l3.474-12h1.929l.743-2h-4.196z"/>
		</symbol>
		<symbol id="nmgr-icon-cart-empty" viewBox="0 0 24 24">
			<path d="M24 3l-.743 2h-1.929l-3.474 12h-13.239l-4.615-11h16.812l-.564 2h-13.24l2.937 7h10.428l3.432-12h4.195zm-15.5 15c-.828 0-1.5.672-1.5 1.5 0 .829.672 1.5 1.5 1.5s1.5-.671 1.5-1.5c0-.828-.672-1.5-1.5-1.5zm6.9-7-1.9 7c-.828 0-1.5.671-1.5 1.5s.672 1.5 1.5 1.5 1.5-.671 1.5-1.5c0-.828-.672-1.5-1.5-1.5z"/>
		</symbol>
		<symbol id="nmgr-icon-bubble" viewBox="0 0 24 24">
			<path d="M12 1.5c6.627 0 12 4.365 12 9.75s-5.373 9.75-12 9.75c-0.636 0-1.261-0.041-1.871-0.118-2.578 2.578-5.654 3.040-8.629 3.108v-0.631c1.606-0.787 3-2.22 3-3.859 0-0.229-0.018-0.453-0.051-0.673-2.714-1.787-4.449-4.518-4.449-7.577 0-5.385 5.373-9.75 12-9.75z"></path>
		</symbol>
		<symbol id="nmgr-icon-camera" viewBox="0 0 24 24">
			<path d="M7.125 14.25c0 2.692 2.183 4.875 4.875 4.875s4.875-2.183 4.875-4.875-2.183-4.875-4.875-4.875-4.875 2.183-4.875 4.875zM22.5 6h-5.25c-0.375-1.5-0.75-3-2.25-3h-6c-1.5 0-1.875 1.5-2.25 3h-5.25c-0.825 0-1.5 0.675-1.5 1.5v13.5c0 0.825 0.675 1.5 1.5 1.5h21c0.825 0 1.5-0.675 1.5-1.5v-13.5c0-0.825-0.675-1.5-1.5-1.5zM12 20.906c-3.676 0-6.656-2.98-6.656-6.656s2.98-6.656 6.656-6.656c3.676 0 6.656 2.98 6.656 6.656s-2.98 6.656-6.656 6.656zM22.5 10.5h-3v-1.5h3v1.5z"></path>
		</symbol>
		<symbol id="nmgr-icon-heart" viewBox="0 0 24 24">
			<path d="M17.7 1.5c-2.523 0-4.694 2.052-5.699 4.195-1.006-2.143-3.178-4.195-5.7-4.195-3.478 0-6.3 2.823-6.3 6.301 0 7.075 7.137 8.93 12.001 15.924 4.597-6.951 11.999-9.075 11.999-15.924 0-3.478-2.823-6.301-6.3-6.301z"></path>
		</symbol>
		<symbol id="nmgr-icon-box-open" viewBox="0 0 24 24">
			<path d="M11.5 23l-8.5-4.535v-3.953l5.4 3.122 3.1-3.406v8.772zm1-.001v-8.806l3.162 3.343 5.338-2.958v3.887l-8.5 4.534zm-10.339-10.125l-2.161-1.244 3-3.302-3-2.823 8.718-4.505 3.215 2.385 3.325-2.385 8.742 4.561-2.995 2.771 2.995 3.443-2.242 1.241v-.001l-5.903 3.27-3.348-3.541 7.416-3.962-7.922-4.372-7.923 4.372 7.422 3.937v.024l-3.297 3.622-5.203-3.008-.16-.092-.679-.393v.002z"/>
		</symbol>
		<symbol id="nmgr-icon-twitter" xmlns="http://www.w3.org/2000/svg" viewBox="0 0 24 24">
			<path d="M12 0c-6.627 0-12 5.373-12 12s5.373 12 12 12 12-5.373 12-12-5.373-12-12-12zm6.066 9.645c.183 4.04-2.83 8.544-8.164 8.544-1.622 0-3.131-.476-4.402-1.291 1.524.18 3.045-.244 4.252-1.189-1.256-.023-2.317-.854-2.684-1.995.451.086.895.061 1.298-.049-1.381-.278-2.335-1.522-2.304-2.853.388.215.83.344 1.301.359-1.279-.855-1.641-2.544-.889-3.835 1.416 1.738 3.533 2.881 5.92 3.001-.419-1.796.944-3.527 2.799-3.527.825 0 1.572.349 2.096.907.654-.128 1.27-.368 1.824-.697-.215.671-.67 1.233-1.263 1.589.581-.07 1.135-.224 1.649-.453-.384.578-.87 1.084-1.433 1.489z"/>
		</symbol>
		<symbol id="nmgr-icon-pinterest" xmlns="http://www.w3.org/2000/svg" viewBox="0 0 24 24">
			<path d="M12 0c-6.627 0-12 5.372-12 12 0 5.084 3.163 9.426 7.627 11.174-.105-.949-.2-2.405.042-3.441.218-.937 1.407-5.965 1.407-5.965s-.359-.719-.359-1.782c0-1.668.967-2.914 2.171-2.914 1.023 0 1.518.769 1.518 1.69 0 1.029-.655 2.568-.994 3.995-.283 1.194.599 2.169 1.777 2.169 2.133 0 3.772-2.249 3.772-5.495 0-2.873-2.064-4.882-5.012-4.882-3.414 0-5.418 2.561-5.418 5.207 0 1.031.397 2.138.893 2.738.098.119.112.224.083.345l-.333 1.36c-.053.22-.174.267-.402.161-1.499-.698-2.436-2.889-2.436-4.649 0-3.785 2.75-7.262 7.929-7.262 4.163 0 7.398 2.967 7.398 6.931 0 4.136-2.607 7.464-6.227 7.464-1.216 0-2.359-.631-2.75-1.378l-.748 2.853c-.271 1.043-1.002 2.35-1.492 3.146 1.124.347 2.317.535 3.554.535 6.627 0 12-5.373 12-12 0-6.628-5.373-12-12-12z" fill-rule="evenodd" clip-rule="evenodd"/>
		</symbol>
		<symbol id="nmgr-icon-facebook" xmlns="http://www.w3.org/2000/svg" viewBox="0 0 24 24">
			<path d="M12 0c-6.627 0-12 5.373-12 12s5.373 12 12 12 12-5.373 12-12-5.373-12-12-12zm3 8h-1.35c-.538 0-.65.221-.65.778v1.222h2l-.209 2h-1.791v7h-3v-7h-2v-2h2v-2.308c0-1.769.931-2.692 3.029-2.692h1.971v3z"/>
		</symbol>
		<symbol id="nmgr-icon-email" xmlns="http://www.w3.org/2000/svg" viewBox="0 0 24 24">
			<path d="M12 .02c-6.627 0-12 5.373-12 12s5.373 12 12 12 12-5.373 12-12-5.373-12-12-12zm6.99 6.98l-6.99 5.666-6.991-5.666h13.981zm.01 10h-14v-8.505l7 5.673 7-5.672v8.504z"/>
		</symbol>
		<symbol id="nmgr-icon-plus" xmlns="http://www.w3.org/2000/svg" viewBox="0 0 24 24">
			<path d="M24 9h-9v-9h-6v9h-9v6h9v9h6v-9h9z"/>
		</symbol>
		<symbol id="nmgr-icon-lock" xmlns="http://www.w3.org/2000/svg" viewBox="0 0 24 24">
			<path d="M18 10v-4c0-3.313-2.687-6-6-6s-6 2.687-6 6v4h-3v14h18v-14h-3zm-5 7.723v2.277h-2v-2.277c-.595-.347-1-.984-1-1.723 0-1.104.896-2 2-2s2 .896 2 2c0 .738-.404 1.376-1 1.723zm-5-7.723v-4c0-2.206 1.794-4 4-4 2.205 0 4 1.794 4 4v4h-8z"/>
		</symbol>
		<symbol id="nmgr-icon-info" xmlns="http://www.w3.org/2000/svg" viewBox="0 0 24 24">
			<path d="M12 0c-6.627 0-12 5.373-12 12s5.373 12 12 12 12-5.373 12-12-5.373-12-12-12zm-2.033 16.01c.564-1.789 1.632-3.932 1.821-4.474.273-.787-.211-1.136-1.74.209l-.34-.64c1.744-1.897 5.335-2.326 4.113.613-.763 1.835-1.309 3.074-1.621 4.03-.455 1.393.694.828 1.819-.211.153.25.203.331.356.619-2.498 2.378-5.271 2.588-4.408-.146zm4.742-8.169c-.532.453-1.32.443-1.761-.022-.441-.465-.367-1.208.164-1.661.532-.453 1.32-.442 1.761.022.439.466.367 1.209-.164 1.661z"/>
		</symbol>
		<symbol id="nmgr-icon-heart-empty" xmlns="http://www.w3.org/2000/svg" viewBox="0 0 24 24">
			<path d="M6.28 3c3.236.001 4.973 3.491 5.72 5.031.75-1.547 2.469-5.021 5.726-5.021 2.058 0 4.274 1.309 4.274 4.182 0 3.442-4.744 7.851-10 13-5.258-5.151-10-9.559-10-13 0-2.676 1.965-4.193 4.28-4.192zm.001-2c-3.183 0-6.281 2.187-6.281 6.192 0 4.661 5.57 9.427 12 15.808 6.43-6.381 12-11.147 12-15.808 0-4.011-3.097-6.182-6.274-6.182-2.204 0-4.446 1.042-5.726 3.238-1.285-2.206-3.522-3.248-5.719-3.248z"/>
		</symbol>
		<symbol id="nmgr-icon-eye" xmlns="http://www.w3.org/2000/svg" viewBox="0 0 24 24">
			<path d="M15 12c0 1.657-1.343 3-3 3s-3-1.343-3-3c0-.199.02-.393.057-.581 1.474.541 2.927-.882 2.405-2.371.174-.03.354-.048.538-.048 1.657 0 3 1.344 3 3zm-2.985-7c-7.569 0-12.015 6.551-12.015 6.551s4.835 7.449 12.015 7.449c7.733 0 11.985-7.449 11.985-7.449s-4.291-6.551-11.985-6.551zm-.015 12c-2.761 0-5-2.238-5-5 0-2.761 2.239-5 5-5 2.762 0 5 2.239 5 5 0 2.762-2.238 5-5 5z"/>
		</symbol>
	</defs>
</svg>
